<svg width="1920" height="1080" viewBox="0 0 1920 1080" xmlns="http://www.w3.org/2000/svg"><rect width="1920" height="1080" fill="#1c71d8"/><path d="M 0,1080 C 0,1080 0,180 0,180 C 135.29743589743592,196.53076923076924 270.59487179487184,213.06153846153845 368,211 C 465.40512820512816,208.93846153846155 524.9179487179487,188.28461538461542 620,183 C 715.0820512820513,177.71538461538458 845.7333333333336,187.79999999999995 955,201 C 1064.2666666666664,214.20000000000005 1152.1487179487178,230.5153846153846 1259,229 C 1365.8512820512822,227.4846153846154 1491.6717948717949,208.13846153846154 1605,197 C 1718.3282051282051,185.86153846153846 1819.1641025641024,182.93076923076922 1920,180 C 1920,180 1920,1080 1920,1080 Z" fill="#deddda" opacity="0.09999999999999999"/><path d="M 0,1080 C 0,1080 0,360 0,360 C 120.68205128205128,388.9820512820513 241.36410256410255,417.9641025641026 357,412 C 472.63589743589745,406.0358974358974 583.2256410256412,365.1256410256411 668,361 C 752.7743589743588,356.8743589743589 811.7333333333333,389.5333333333333 922,382 C 1032.2666666666667,374.4666666666667 1193.8410256410257,326.74102564102566 1316,320 C 1438.1589743589743,313.25897435897434 1520.902564102564,347.5025641025641 1615,361 C 1709.097435897436,374.4974358974359 1814.5487179487181,367.24871794871797 1920,360 C 1920,360 1920,1080 1920,1080 Z" fill="#deddda" opacity="0.19999999999999998"/><path d="M 0,1080 C 0,1080 0,540 0,540 C 114.46153846153848,568.123076923077 228.92307692307696,596.2461538461539 336,585 C 443.07692307692304,573.7538461538461 542.7692307692307,523.1384615384615 635,516 C 727.2307692307693,508.86153846153854 812,545.2 907,540 C 1002,534.8 1107.2307692307693,488.0615384615384 1238,484 C 1368.7692307692307,479.9384615384616 1525.076923076923,518.5538461538462 1643,535 C 1760.923076923077,551.4461538461538 1840.4615384615386,545.7230769230769 1920,540 C 1920,540 1920,1080 1920,1080 Z" fill="#deddda" opacity="0.3"/><path d="M 0,1080 C 0,1080 0,720 0,720 C 79.83333333333331,720.1282051282051 159.66666666666663,720.2564102564103 278,710 C 396.33333333333337,699.7435897435897 553.1666666666667,679.1025641025641 664,688 C 774.8333333333333,696.8974358974359 839.6666666666667,735.3333333333333 950,732 C 1060.3333333333333,728.6666666666667 1216.1666666666665,683.5641025641025 1334,681 C 1451.8333333333335,678.4358974358975 1531.6666666666667,718.4102564102564 1623,732 C 1714.3333333333333,745.5897435897436 1817.1666666666665,732.7948717948718 1920,720 C 1920,720 1920,1080 1920,1080 Z" fill="#deddda" opacity="0.39999999999999997"/><path d="M 0,1080 C 0,1080 0,900 0,900 C 99.03333333333333,911.0333333333333 198.06666666666666,922.0666666666667 288,940 C 377.93333333333334,957.9333333333333 458.76666666666665,982.7666666666667 581,963 C 703.2333333333333,943.2333333333333 866.8666666666668,878.8666666666667 998,858 C 1129.1333333333332,837.1333333333333 1227.7666666666667,859.7666666666668 1307,877 C 1386.2333333333333,894.2333333333332 1446.0666666666668,906.0666666666667 1545,909 C 1643.9333333333332,911.9333333333333 1781.9666666666667,905.9666666666667 1920,900 C 1920,900 1920,1080 1920,1080 Z" fill="#deddda" opacity="0.49999999999999994"/></svg>